<svg width="20" height="20" viewBox="0 0 20 20" fill="none" xmlns="http://www.w3.org/2000/svg">
<path d="M13.0078 2.06641H11.0312C10.7852 2.06641 10.5859 2.26562 10.5859 2.51172V4.48828C10.5859 4.60547 10.6328 4.71875 10.7148 4.80469C10.8008 4.89062 10.9102 4.9375 11.0312 4.9375H13.0078C13.2539 4.9375 13.4531 4.73828 13.4531 4.49219V2.51172C13.457 2.26562 13.2539 2.06641 13.0078 2.06641ZM12.5625 4.04297H11.4805V2.95703H12.5625V4.04297ZM13.0078 6.10547H11.0312C10.7852 6.10547 10.5859 6.30469 10.5859 6.55078V8.52734C10.5859 8.64453 10.6328 8.75781 10.7148 8.84375C10.8008 8.92969 10.9102 8.97656 11.0312 8.97656H13.0078C13.2539 8.97656 13.4531 8.77734 13.4531 8.53125V6.55469C13.457 6.30859 13.2539 6.10547 13.0078 6.10547ZM12.5625 8.08203H11.4805V7H12.5625V8.08203ZM13.0078 10.1484H11.0312C10.7852 10.1484 10.5859 10.3477 10.5859 10.5938V12.5703C10.5859 12.6875 10.6328 12.8008 10.7148 12.8867C10.8008 12.9727 10.9102 13.0195 11.0312 13.0195H13.0078C13.2539 13.0195 13.4531 12.8203 13.4531 12.5742V10.5977C13.457 10.3477 13.2539 10.1484 13.0078 10.1484ZM12.5625 12.125H11.4805V11.043H12.5625V12.125ZM8.96875 2.06641H6.99219C6.74609 2.06641 6.54688 2.26562 6.54688 2.51172V4.48828C6.54688 4.73438 6.74609 4.93359 6.99219 4.93359H8.96875C9.21484 4.93359 9.41406 4.73438 9.41406 4.48828V2.51172C9.41406 2.39453 9.36719 2.28125 9.28516 2.19531C9.19922 2.11328 9.08594 2.06641 8.96875 2.06641ZM8.51953 4.04297H7.4375V2.95703H8.51953V4.04297ZM8.96875 6.10547H6.99219C6.74609 6.10547 6.54688 6.30469 6.54688 6.55078V8.52734C6.54688 8.77344 6.74609 8.97266 6.99219 8.97266H8.96875C9.21484 8.97266 9.41406 8.77344 9.41406 8.52734V6.55078C9.41406 6.42969 9.36719 6.32031 9.28516 6.23438C9.19922 6.15234 9.08594 6.10547 8.96875 6.10547ZM8.51953 8.08203H7.4375V7H8.51953V8.08203ZM8.96875 10.1484H6.99219C6.74609 10.1484 6.54688 10.3477 6.54688 10.5938V12.5703C6.54688 12.8164 6.74609 13.0156 6.99219 13.0156H8.96875C9.21484 13.0156 9.41406 12.8164 9.41406 12.5703V10.5938C9.41406 10.4766 9.36719 10.3633 9.28516 10.2773C9.19922 10.1953 9.08594 10.1484 8.96875 10.1484ZM8.51953 12.125H7.4375V11.043H8.51953V12.125ZM15.5195 19.1055V0H15.2188H14.6289H4.48047V19.1055H0V20H20V19.1055H15.5195ZM9.23438 19.1055V15.293C9.23438 15.1758 9.32812 15.082 9.44531 15.082H10.5508C10.668 15.082 10.7617 15.1758 10.7617 15.293V19.1055H9.23438ZM11.6562 19.1055V15.293C11.6562 14.6836 11.1602 14.1875 10.5508 14.1875H9.44531C8.83594 14.1875 8.33984 14.6836 8.33984 15.293V19.1055H7.01562H6.12109H5.36719V0.894531H14.6211V19.1094H11.6562V19.1055Z" fill="#19245E"/>
</svg>
