<svg width="20" height="20" viewBox="0 0 20 20" fill="none" xmlns="http://www.w3.org/2000/svg">
<path d="M11.5996 19.1066V12.6371C11.741 12.6004 11.8828 12.5633 12.0242 12.5266C13.5273 13.4102 14.8641 13.5684 16.2539 13.1109C17.2957 12.768 18.1945 11.5121 18.1883 10.3274C18.1852 9.70079 17.9113 9.11641 17.8984 9.08946C17.7223 8.7211 17.4691 8.38946 17.1508 8.1168C17.3984 7.6879 17.5289 7.20196 17.5297 6.70196C17.5117 6.07657 17.3078 5.47852 16.9395 4.97266C16.5867 4.48829 16.1074 4.1211 15.5496 3.90704C15.5043 3.13009 15.1398 2.40587 14.518 1.86016C13.877 1.29766 13.0332 0.987898 12.1418 0.987898C11.6984 0.987898 11.1777 1.04415 10.5934 1.1547C10.0043 0.41993 9.13164 7.62939e-06 8.18828 7.62939e-06C7.53906 7.62939e-06 7.05742 0.203523 6.85469 0.300789C6.65 0.398836 6.18633 0.649617 5.7793 1.16016C5.7793 1.16016 5.32422 1.73126 5.17422 2.43438C5.10586 2.7543 5.10586 3.08165 5.10586 3.08165C5.10586 3.1543 5.10859 3.22774 5.11367 3.30157C5.03984 3.29649 4.96641 3.29376 4.89375 3.29376C3.19648 3.29571 1.81367 4.67813 1.81172 6.37579C1.81211 7.00548 2.00039 7.60704 2.35742 8.12227C2.01055 8.56212 1.81758 9.10743 1.81172 9.66993C1.81016 9.81563 1.81758 10.1707 1.97109 10.5852C2.26719 11.384 2.88516 11.809 3.29258 12.0895C3.58984 12.2941 4.09102 12.5621 4.77695 12.7582C5.36445 12.9262 5.8793 12.9313 5.8793 12.9313C6.36719 13.2168 6.56602 13.3027 7.08281 13.3789V19.1066H0V20H20V19.1066H11.5996ZM12.1418 1.88204C13.5305 1.88204 14.6602 2.86407 14.6602 4.07071C14.6602 4.09298 14.6582 4.11602 14.6562 4.14063L14.6523 4.19259C14.6387 4.39845 14.7672 4.58555 14.9641 4.64727L14.9695 4.64884C15.9219 4.89766 16.591 5.72501 16.6359 6.70821C16.6328 7.15509 16.4762 7.5922 16.1938 7.94063C16.0414 8.13399 16.0742 8.41524 16.2672 8.56798C16.2773 8.57618 16.2875 8.5836 16.3008 8.5922C16.9094 8.96641 17.2812 9.6172 17.2949 10.3301C17.2949 11.5371 16.1652 12.5188 14.7758 12.5188H14.7687C14.359 12.5188 13.5633 12.3152 13.0699 12.057C14.0098 11.4738 14.5648 10.5941 14.5648 9.6711C14.5648 8.61915 13.8828 7.6629 12.7336 7.09532C13.2555 5.65313 12.6234 4.02696 11.2602 3.31798C11.2668 3.23946 11.2699 3.16055 11.2699 3.08282C11.2699 2.7086 11.2035 2.34337 11.0727 1.9961C11.2902 1.94493 11.632 1.88204 12.1418 1.88204ZM7.97539 19.1066V12.9649C7.97539 12.7188 7.775 12.5184 7.52891 12.5184C6.32305 12.5168 5.34102 11.5352 5.34023 10.3297V8.89454H4.44687V10.3293C4.44766 10.8078 4.56133 11.2856 4.77617 11.7121V11.7766C2.94453 10.9836 2.70469 10.2367 2.70469 9.67344C2.71719 9.21368 2.9168 8.76954 3.25234 8.45469L3.25547 8.45157C3.42109 8.28321 3.42695 8.01407 3.26914 7.83868C2.87773 7.40509 2.67891 6.84493 2.70898 6.26173C2.73906 5.67852 2.99414 5.1418 3.42773 4.7504C3.99688 4.23712 4.80508 4.0586 5.53867 4.28477C5.69648 4.33087 5.86719 4.28829 5.98398 4.17423L5.98438 4.17384C6.10156 4.05665 6.14414 3.88555 6.09531 3.72696C5.92305 3.16837 5.97852 2.57618 6.25195 2.05899C6.525 1.5422 6.9832 1.16251 7.54219 0.990242C8.10078 0.817976 8.69336 0.873445 9.21016 1.14688C9.72695 1.41993 10.1062 1.87813 10.2785 2.43712C10.3844 2.78087 10.4039 3.14923 10.3352 3.50235C10.293 3.71602 10.4105 3.92774 10.6145 4.00548C11.7406 4.4336 12.309 5.69805 11.8813 6.82423C11.8434 6.92384 11.7988 7.01993 11.7484 7.10938C11.6906 7.21368 11.6766 7.33438 11.7094 7.44923C11.7422 7.56407 11.818 7.65899 11.9211 7.71602C11.9395 7.72657 11.9594 7.73555 11.9828 7.74454C13.0238 8.13087 13.6707 8.86876 13.6707 9.6711C13.6707 10.8781 12.2457 11.8598 10.4938 11.8598H10.4469C10.2512 11.8606 9.68477 11.8633 9.29336 11.7918V7.57696H8.4V19.1066H7.97539ZM9.29375 19.1066V12.7C9.70117 12.7578 10.2023 12.7547 10.4301 12.7531C10.4559 12.7531 10.4773 12.7527 10.4941 12.7527C10.5648 12.7527 10.6359 12.7512 10.7062 12.7484V19.1066H9.29375Z" fill="#19245E"/>
<path d="M7.08281 11.0774C6.82383 10.9219 6.65859 10.6391 6.6582 10.3297V8.89454H5.76484V10.3293C5.76602 11.3012 6.55742 12.0926 7.5293 12.0938C7.77578 12.0938 7.97578 11.8934 7.97578 11.6473V7.57696H7.08281V11.0774Z" fill="#19245E"/>
</svg>
