<svg width="18" height="20" viewBox="0 0 18 20" fill="none" xmlns="http://www.w3.org/2000/svg">
<path d="M10.5156 6.62109C10.5156 6.375 10.7149 6.17578 10.9609 6.17578C11.207 6.17578 11.4063 6.375 11.4063 6.62109C11.4063 6.86719 11.207 7.06641 10.9609 7.06641C10.7149 7.06641 10.5156 6.86719 10.5156 6.62109ZM7.07813 7.06641C7.32422 7.06641 7.52344 6.86719 7.52344 6.62109C7.52344 6.375 7.32422 6.17578 7.07813 6.17578C6.83204 6.17578 6.63282 6.375 6.63282 6.62109C6.63282 6.86719 6.83204 7.06641 7.07813 7.06641ZM7.95704 9.73047C8.28907 9.88672 8.64845 9.96875 9.01954 9.96875C9.38282 9.96875 9.73438 9.89062 10.0625 9.74219C10.2852 9.64062 10.3828 9.375 10.2813 9.14844C10.1797 8.92578 9.91407 8.82812 9.68751 8.92969C9.47657 9.02734 9.25001 9.07422 9.01954 9.07422C8.78126 9.07422 8.55079 9.02344 8.33594 8.92188C8.22657 8.87109 8.10548 8.86328 7.9961 8.90625C7.88282 8.94531 7.79297 9.02734 7.74219 9.13672C7.69141 9.24609 7.6836 9.36719 7.72657 9.47656C7.76954 9.58984 7.85157 9.67969 7.95704 9.73047ZM17.625 15.8164V19.5547C17.625 19.8008 17.4258 20 17.1797 20H0.824219C0.578125 20 0.378906 19.8008 0.378906 19.5547V15.8164C0.378906 14.8086 0.910157 13.8281 1.87891 13.0547C2.75 12.3555 3.89063 11.9141 4.92969 11.8711L5.9336 10.9688C4.66797 10.0078 3.91407 8.48828 3.91407 6.89453V4.33203C3.91407 3.17188 4.36328 2.08594 5.17579 1.26953C5.98438 0.449219 7.07032 0 8.22657 0H9.78126C12.1758 0 14.125 1.94141 14.125 4.33203V6.89453C14.125 8.49219 13.3594 10.0117 12.0781 10.9766L13.0742 11.8711C14.1172 11.918 15.2539 12.3594 16.1289 13.0586C17.0899 13.8281 17.625 14.8086 17.625 15.8164ZM11.4336 11.5977L9.64063 14.4688L11.1211 15.207L12.3594 12.4258L11.4336 11.5977ZM7.88672 15.7031L8.15626 16.543H9.84766L10.1328 15.7148L9.00001 15.1484L7.88672 15.7031ZM10.2188 11.8516C9.41798 12.0469 8.57813 12.0469 7.77735 11.8477L9.00001 13.8047L10.2188 11.8516ZM4.80469 4.42969L5.39063 3.57031C5.46485 3.46094 5.58594 3.39062 5.71875 3.37891C5.73047 3.37891 5.7461 3.37891 5.75782 3.37891C5.87891 3.37891 5.99219 3.42578 6.07813 3.51172C6.85547 4.30859 7.75782 4.66016 9.00001 4.66016C10.2422 4.66016 11.1445 4.30469 11.9219 3.51172C12.0156 3.41797 12.1445 3.36719 12.2774 3.37891C12.4102 3.39062 12.5313 3.46094 12.6055 3.57031L13.2305 4.46875V4.33203C13.2305 2.4375 11.6836 0.894531 9.78126 0.894531H8.22657C6.33985 0.894531 4.80469 2.4375 4.80469 4.33203V4.42969ZM9.00391 11.1055C11.3359 11.1055 13.2305 9.21484 13.2305 6.89062V6.02734L12.168 4.49609C11.3008 5.21484 10.293 5.55078 9.00001 5.55078C7.71094 5.55078 6.70313 5.21484 5.83594 4.5L4.80469 6.01172V6.89062C4.80469 9.21484 6.68751 11.1055 9.00391 11.1055ZM5.64454 12.4258L6.88282 15.207L8.36329 14.4688L6.57032 11.5977L5.64454 12.4258ZM7.36719 17.0078L7.07813 16.1055L6.86329 16.2148C6.75391 16.2695 6.62501 16.2773 6.51172 16.2344C6.39844 16.1953 6.30469 16.1055 6.25391 15.9961L4.82032 12.7695C3.16797 12.9102 1.26953 14.2617 1.26953 15.8164V19.1055H6.87501L7.36719 17.0078ZM10.1914 19.1055L9.81251 17.4375H8.18751L7.79688 19.1055H10.1914ZM16.7305 15.8164C16.7305 14.2617 14.832 12.9141 13.1797 12.7695L11.7422 15.9961C11.6914 16.1055 11.5977 16.1953 11.4844 16.2344C11.3711 16.2734 11.2422 16.2695 11.1328 16.2148L10.9375 16.1172L10.625 17.0156L11.1016 19.1055H16.7227V15.8164H16.7305Z" fill="#19245E"/>
</svg>
