<svg width="14" height="20" viewBox="0 0 14 20" fill="none" xmlns="http://www.w3.org/2000/svg">
<path d="M13.2539 16.6602C13.1524 16.1289 12.832 15.6602 12.375 15.3711C12.4414 15.3125 12.5078 15.2461 12.5625 15.1797C12.9414 14.7383 13.1094 14.1562 13.0234 13.582C12.8867 12.6641 12.4961 11.8086 11.8945 11.1055C11.4609 10.5977 10.9414 10.1875 10.3438 9.89062C11.0977 9.05859 11.5117 7.98438 11.5117 6.86328C11.5117 4.88281 10.1992 3.12109 8.3125 2.54297C8.54297 2.23828 8.66406 1.875 8.66406 1.48828C8.66406 1.08984 8.50781 0.714844 8.22656 0.433594C7.94922 0.15625 7.57422 0 7.17578 0C6.84375 0 6.53125 0.109375 6.30078 0.304688C6.03906 0.523438 5.89844 0.832031 5.89844 1.17188C5.89844 1.41797 6.09765 1.61719 6.34375 1.61719C6.58984 1.61719 6.78906 1.41797 6.78906 1.17188C6.78906 1.09766 6.81641 1.03516 6.875 0.988281C6.94922 0.925781 7.05469 0.894531 7.17578 0.894531C7.50391 0.894531 7.77344 1.16406 7.77344 1.49219C7.77344 1.72266 7.68359 1.9375 7.52344 2.09766C7.36328 2.25781 7.14453 2.34766 6.91797 2.34766C6.90625 2.34766 6.89844 2.34766 6.88672 2.34766C5.70703 2.375 4.60156 2.85938 3.77343 3.70703C2.94531 4.55469 2.48828 5.67578 2.48828 6.85938C2.48828 7.98438 2.90234 9.05469 3.65625 9.88672C3.06249 10.1836 2.53906 10.5938 2.10546 11.1016C1.5039 11.8047 1.11718 12.6602 0.976555 13.5781C0.890618 14.1523 1.05859 14.7344 1.43749 15.1758C1.49609 15.2422 1.55859 15.3047 1.62499 15.3672C1.16796 15.6562 0.851555 16.125 0.746086 16.6562C0.636711 17.2188 0.777336 17.7969 1.1289 18.25L1.96093 19.3125C2.29687 19.7383 2.82421 19.9961 3.37109 19.9961C3.68359 19.9961 3.98828 19.9141 4.25781 19.7578C4.34765 19.707 4.42968 19.6484 4.50781 19.582C4.74609 19.8398 5.08594 19.9961 5.45703 19.9961H8.53906C8.91016 19.9961 9.25 19.8398 9.48828 19.582C9.56641 19.6484 9.64844 19.707 9.73828 19.7578C10.0078 19.9141 10.3125 19.9961 10.625 19.9961C11.1719 19.9961 11.6992 19.7422 12.0352 19.3125L12.8672 18.25C13.2227 17.8008 13.3633 17.2227 13.2539 16.6602ZM3.3789 6.86328C3.3789 4.86719 5.0039 3.24219 7 3.24219C8.9961 3.24219 10.6211 4.86719 10.6211 6.86328C10.6211 8.85938 8.9961 10.4844 7 10.4844C5.0039 10.4844 3.3789 8.85938 3.3789 6.86328ZM1.85937 13.7148C1.96484 13 2.26171 12.3281 2.70703 11.7734C3.14843 11.2266 3.72656 10.8008 4.38281 10.543C5.15234 11.0898 6.05469 11.3789 7 11.3789C7.94531 11.3789 8.84766 11.0898 9.61719 10.543C10.2734 10.8008 10.8555 11.2266 11.293 11.7734C11.7422 12.332 12.0352 13.0039 12.1406 13.7148C12.1875 14.0312 12.0977 14.3516 11.8867 14.5938C11.7148 14.793 11.4844 14.9219 11.2266 14.9609V14.4805C11.2266 14.0898 11 13.7305 10.6484 13.5586V13.125C10.6484 12.8789 10.4492 12.6797 10.2031 12.6797C9.95704 12.6797 9.75782 12.8789 9.75782 13.125V13.457H4.24609V13.125C4.24609 12.8789 4.04687 12.6797 3.80078 12.6797C3.55468 12.6797 3.35546 12.8789 3.35546 13.125V13.5586C3.0039 13.7305 2.77734 14.0898 2.77734 14.4805V14.9609C2.51953 14.9219 2.28906 14.7891 2.11718 14.5938C1.90234 14.3555 1.81249 14.0312 1.85937 13.7148ZM10.3359 15.2422H3.66406V14.4805C3.66406 14.4062 3.72265 14.3477 3.79687 14.3477H10.2031C10.2773 14.3477 10.3359 14.4062 10.3359 14.4805V15.2422ZM3.8125 18.9883C3.42968 19.2109 2.93749 19.1133 2.66406 18.7656L1.83202 17.7031C1.64062 17.457 1.56249 17.1367 1.62109 16.832C1.67968 16.5234 1.87109 16.2578 2.14062 16.1016C2.30859 16.0039 2.49218 15.957 2.67968 15.957C2.79687 15.957 2.91796 15.9766 3.03124 16.0156C3.32812 16.1172 3.5664 16.3438 3.68359 16.6328L4.1875 17.8828C4.35937 18.293 4.19531 18.7656 3.8125 18.9883ZM8.53906 19.1055H5.45703C5.29687 19.1055 5.14844 19.0078 5.08984 18.8633C5.07812 18.8359 5.0664 18.8125 5.05078 18.7891C5.18359 18.3945 5.18359 17.957 5.01953 17.5469L4.51562 16.2969C4.49218 16.2422 4.46875 16.1914 4.4414 16.1367H9.55469C9.52735 16.1875 9.50391 16.2422 9.48047 16.2969L8.97656 17.5469C8.8125 17.9531 8.8125 18.3945 8.94531 18.7891C8.92969 18.8125 8.91797 18.8398 8.90625 18.8633C8.84766 19.0078 8.70313 19.1055 8.53906 19.1055ZM12.1641 17.7031L11.3359 18.7656C11.0625 19.1133 10.5703 19.207 10.1875 18.9883C9.80469 18.7695 9.64063 18.293 9.80469 17.8828L10.3086 16.6328C10.4258 16.3438 10.6641 16.1172 10.9609 16.0156C11.0742 15.9766 11.1953 15.957 11.3125 15.957C11.5039 15.957 11.6875 16.0078 11.8516 16.1016C12.125 16.2578 12.3125 16.5234 12.3711 16.832C12.4375 17.1367 12.3594 17.457 12.1641 17.7031Z" fill="#19245E"/>
<path d="M5.89452 8.14453C5.80077 8.21875 5.74218 8.32812 5.73046 8.44531C5.71874 8.5625 5.7539 8.67969 5.82812 8.77344C6.11718 9.1289 6.54297 9.33203 7 9.33203C7.45703 9.33203 7.88672 9.1289 8.17188 8.77344C8.2461 8.67969 8.28126 8.5625 8.26954 8.44531C8.25782 8.32812 8.19922 8.21875 8.10547 8.14453C7.91407 7.98828 7.63282 8.01953 7.47657 8.21094C7.35938 8.35547 7.18359 8.44141 6.99609 8.44141C6.80859 8.44141 6.63672 8.35937 6.51562 8.21094C6.36718 8.01953 6.08593 7.98828 5.89452 8.14453Z" fill="#19245E"/>
<path d="M5.01562 7.30858C5.13671 7.30858 5.24609 7.26171 5.33202 7.17968C5.35937 7.15233 5.40234 7.15233 5.42968 7.17968C5.51562 7.26561 5.62499 7.30858 5.74609 7.30858C5.86718 7.30858 5.97655 7.26171 6.06249 7.17968C6.23827 7.00389 6.23827 6.72264 6.06249 6.54686C5.68749 6.17186 5.07812 6.17186 4.70312 6.54686C4.61718 6.6328 4.57421 6.74217 4.57421 6.86327C4.57421 6.98436 4.62109 7.09374 4.70312 7.17968C4.78515 7.26171 4.89452 7.30858 5.01562 7.30858Z" fill="#19245E"/>
<path d="M8.25781 7.30858C8.3789 7.30858 8.48827 7.26171 8.57421 7.17968C8.60155 7.15233 8.64452 7.15233 8.67187 7.17968C8.7578 7.26561 8.86718 7.30858 8.98827 7.30858C9.10937 7.30858 9.21874 7.26171 9.30468 7.17968C9.39062 7.09374 9.43359 6.98436 9.43359 6.86327C9.43359 6.74217 9.38671 6.6328 9.30468 6.54686C8.92968 6.17186 8.3203 6.17186 7.9453 6.54686C7.76952 6.72264 7.76952 7.00389 7.9453 7.17968C8.02343 7.26171 8.13671 7.30858 8.25781 7.30858Z" fill="#19245E"/>
</svg>
