<svg width="24" height="22" viewBox="0 0 24 22" fill="none" xmlns="http://www.w3.org/2000/svg">
<path d="M19.0026 15.9983C17.3525 15.9983 16.0101 17.3408 16.0101 18.9908C16.0101 20.6409 17.3526 21.9833 19.0026 21.9833C20.6527 21.9833 21.9951 20.6409 21.9951 18.9908C21.9951 17.3408 20.6527 15.9983 19.0026 15.9983ZM19.0026 20.1878C18.3425 20.1878 17.8056 19.651 17.8056 18.9908C17.8056 18.3307 18.3425 17.7938 19.0026 17.7938C19.6628 17.7938 20.1996 18.3307 20.1996 18.9908C20.1996 19.651 19.6628 20.1878 19.0026 20.1878Z" fill="#19245E"/>
<path d="M23.8092 4.43243C23.6392 4.21489 23.3786 4.08799 23.1024 4.08799H5.5416L4.73361 0.707349C4.63695 0.303378 4.27573 0.0181885 3.86037 0.0181885H0.897755C0.401909 0.0181416 0 0.42005 0 0.915897C0 1.41174 0.401909 1.81365 0.897755 1.81365H3.15175L6.06946 14.022C6.16611 14.4263 6.52734 14.7112 6.9427 14.7112H20.9179C21.3305 14.7112 21.6902 14.4299 21.7893 14.0294L23.9738 5.20147C24.0399 4.93339 23.9792 4.64998 23.8092 4.43243ZM20.2155 12.9157H7.65131L5.97069 5.8835H21.9553L20.2155 12.9157Z" fill="#19245E"/>
<path d="M8.1397 15.9983C6.4896 15.9983 5.14719 17.3408 5.14719 18.9908C5.14719 20.6409 6.48965 21.9833 8.1397 21.9833C9.78976 21.9833 11.1322 20.6409 11.1322 18.9908C11.1322 17.3408 9.78976 15.9983 8.1397 15.9983ZM8.1397 20.1878C7.47956 20.1878 6.9427 19.651 6.9427 18.9908C6.9427 18.3307 7.47956 17.7938 8.1397 17.7938C8.79985 17.7938 9.33671 18.3307 9.33671 18.9908C9.33671 19.651 8.79985 20.1878 8.1397 20.1878Z" fill="#19245E"/>
</svg>
