<svg width="172" height="40" viewBox="0 0 172 40" fill="none" xmlns="http://www.w3.org/2000/svg">
<path d="M159.88 33.5155V34.1712C159.88 35.337 158.933 36.2841 157.767 36.2841H139.042C137.876 36.2841 136.929 35.337 136.929 34.1712V33.5155C136.929 32.3497 137.876 31.4025 139.042 31.4025H157.767C158.933 31.3297 159.88 32.3497 159.88 33.5155ZM171.319 19.745C171.319 18.5792 170.372 17.6321 169.206 17.6321H150.481C149.315 17.6321 148.368 18.5792 148.368 19.745V20.4007C148.368 21.5665 149.315 22.5137 150.481 22.5137H169.206C170.372 22.5137 171.319 21.5665 171.319 20.4007V19.745ZM157.767 3.71585H139.042C137.876 3.71585 136.929 4.66302 136.929 5.82878V6.48452C136.929 7.65027 137.876 8.59745 139.042 8.59745H157.767C158.933 8.59745 159.88 7.65027 159.88 6.48452V5.82878C159.88 4.66302 158.933 3.71585 157.767 3.71585Z" fill="#82D2FF"/>
<path d="M67.1767 6.19308C67.1767 6.41166 67.1038 6.63024 67.031 6.92168L63.3151 16.4663C63.0237 17.1949 62.5136 17.5592 61.7851 17.5592C61.0565 17.5592 60.5464 17.1949 60.255 16.4663L57.9963 10.4189L55.7377 16.4663C55.4463 17.1949 54.9362 17.5592 54.2076 17.5592C53.479 17.5592 52.969 17.1949 52.6776 16.4663L49.1075 6.92168C48.9617 6.63024 48.9617 6.41166 48.9617 6.19308C48.9617 5.31876 49.6903 4.59016 50.5646 4.59016C51.2932 4.59016 51.8033 4.95446 52.0947 5.6102L54.3534 11.8761L56.4663 5.82878C56.7577 5.02732 57.3406 4.59016 58.0692 4.59016C58.7978 4.59016 59.3807 5.02732 59.6721 5.82878L61.7851 11.8761L64.0437 5.68306C64.2623 5.02732 64.8452 4.59016 65.5738 4.59016C66.4481 4.59016 67.1767 5.31876 67.1767 6.19308ZM69.3625 15.9563V6.3388C69.3625 5.39162 70.0182 4.66302 70.9654 4.66302C71.9126 4.66302 72.5683 5.39162 72.5683 6.3388V9.47177H77.1585V6.26594C77.1585 5.31876 77.8142 4.59016 78.7614 4.59016C79.7085 4.59016 80.3643 5.2459 80.3643 6.26594V15.9563C80.3643 16.9035 79.6357 17.6321 78.7614 17.6321C77.8142 17.6321 77.1585 16.9035 77.1585 15.9563V12.3862H72.5683V15.9563C72.5683 16.9035 71.8397 17.6321 70.9654 17.6321C70.0182 17.6321 69.3625 16.9035 69.3625 15.9563ZM83.2787 15.7377V6.48452C83.2787 5.53734 84.0073 4.80874 84.9544 4.80874H90.7104C91.5847 4.80874 92.2404 5.46448 92.2404 6.26594C92.2404 7.14026 91.5847 7.72313 90.7104 7.72313H86.5574V9.47177H89.1803C89.9818 9.47177 90.5647 10.0546 90.5647 10.8561C90.5647 11.6576 89.9818 12.2404 89.1803 12.2404H86.5574V14.4262H90.929C91.8033 14.4262 92.459 15.082 92.459 15.8834C92.459 16.7577 91.8033 17.3406 90.929 17.3406H84.9544C84.0073 17.4135 83.2787 16.6849 83.2787 15.7377ZM94.6448 15.7377V6.48452C94.6448 5.53734 95.3734 4.80874 96.3206 4.80874H102.076C102.951 4.80874 103.607 5.46448 103.607 6.26594C103.607 7.14026 102.951 7.72313 102.076 7.72313H97.9235V9.47177H100.546C101.348 9.47177 101.931 10.0546 101.931 10.8561C101.931 11.6576 101.348 12.2404 100.546 12.2404H97.9235V14.4262H102.295C103.169 14.4262 103.825 15.082 103.825 15.8834C103.825 16.7577 103.169 17.3406 102.295 17.3406H96.3206C95.3734 17.4135 94.6448 16.6849 94.6448 15.7377ZM106.011 15.7377V6.26594C106.011 5.39162 106.667 4.59016 107.614 4.59016C108.561 4.59016 109.217 5.31876 109.217 6.26594V14.4262H113.078C113.953 14.4262 114.536 15.082 114.536 15.8834C114.536 16.7577 113.88 17.3406 113.078 17.3406H107.541C106.667 17.4135 106.011 16.6849 106.011 15.7377ZM116.794 16.2477C116.357 15.8834 116.138 15.4463 116.138 14.9362C116.138 14.0619 116.867 13.4791 117.596 13.4791C117.814 13.4791 118.106 13.5519 118.324 13.6976C118.616 13.9162 119.417 14.7905 120.729 14.7905C121.603 14.7905 122.04 14.4991 122.04 13.8434C122.04 13.2605 121.676 13.0419 120.801 12.6776L119.49 12.0947C117.523 11.2204 116.284 10.0546 116.284 8.30601C116.284 6.04736 118.179 4.59016 120.656 4.59016C122.842 4.59016 123.934 5.68306 124.226 6.04736C124.517 6.3388 124.59 6.7031 124.59 6.99454C124.59 7.79599 123.862 8.45173 123.133 8.45173C122.842 8.45173 122.55 8.37887 122.331 8.16029C121.894 7.86885 121.53 7.43169 120.729 7.43169C120.073 7.43169 119.636 7.65027 119.636 8.23315C119.636 8.74317 119.927 8.96175 120.729 9.25319L122.186 9.83607C124.299 10.7104 125.392 11.8033 125.392 13.6248C125.392 16.102 123.352 17.5592 120.801 17.5592C119.344 17.6321 117.668 17.0492 116.794 16.2477ZM54.0619 33.7341V24.2623C54.0619 23.3151 54.7905 22.5865 55.7377 22.5865H59.0164C61.8579 22.5865 63.898 24.3352 63.898 26.8852C63.898 29.4353 61.8579 31.184 59.0164 31.184H57.3406V33.6612C57.3406 34.6084 56.612 35.337 55.7377 35.337C54.7905 35.4098 54.0619 34.6812 54.0619 33.7341ZM59.0164 28.4153C59.9636 28.4153 60.5464 27.8324 60.5464 26.9581C60.5464 26.0838 59.9636 25.5009 59.0164 25.5009H57.3406V28.4153H59.0164ZM78.9071 28.8525C78.9071 32.4954 75.9198 35.337 72.1311 35.337C68.3424 35.337 65.3552 32.4954 65.3552 28.8525C65.3552 25.2095 68.3424 22.3679 72.1311 22.3679C75.9198 22.3679 78.9071 25.2095 78.9071 28.8525ZM68.7067 28.8525C68.7067 30.9654 70.0911 32.3497 72.1311 32.3497C74.1712 32.3497 75.5555 30.8925 75.5555 28.8525C75.5555 26.8124 74.0983 25.3552 72.1311 25.3552C70.0911 25.3552 68.7067 26.8124 68.7067 28.8525ZM98.2878 23.9709C98.2878 24.1894 98.2149 24.408 98.1421 24.6995L94.4262 34.2441C94.1348 34.9727 93.6248 35.337 92.8962 35.337C92.1676 35.337 91.6576 34.9727 91.3661 34.2441L89.1075 28.1967L86.8488 34.2441C86.5574 34.9727 86.0473 35.337 85.3187 35.337C84.5902 35.337 84.0801 34.9727 83.7887 34.2441L80.0728 24.6995C79.9271 24.408 79.9271 24.1894 79.9271 23.9709C79.9271 23.0965 80.6557 22.3679 81.53 22.3679C82.2586 22.3679 82.7687 22.7322 83.0601 23.388L85.3187 29.6539L87.4317 23.6066C87.7231 22.8051 88.306 22.3679 89.0346 22.3679C89.7632 22.3679 90.3461 22.8051 90.6375 23.6066L92.7504 29.6539L95.0091 23.4608C95.2277 22.8051 95.8106 22.3679 96.5392 22.3679C97.5592 22.3679 98.2878 23.0965 98.2878 23.9709ZM100.401 33.5155V24.2623C100.401 23.3151 101.129 22.5865 102.076 22.5865H107.832C108.707 22.5865 109.362 23.2423 109.362 24.0437C109.362 24.918 108.707 25.5009 107.832 25.5009H103.679V27.2495H106.302C107.104 27.2495 107.687 27.8324 107.687 28.6339C107.687 29.4353 107.104 30.0182 106.302 30.0182H103.679V32.204H108.051C108.925 32.204 109.581 32.8597 109.581 33.6612C109.581 34.5355 108.925 35.1184 108.051 35.1184H102.076C101.129 35.1184 100.401 34.4627 100.401 33.5155ZM121.967 33.8798C121.967 34.6812 121.239 35.337 120.437 35.337C119.854 35.337 119.344 35.0455 118.98 34.5355L116.794 31.2568H116.721H115.046V33.7341C115.046 34.6812 114.317 35.4098 113.443 35.4098C112.495 35.4098 111.84 34.6812 111.84 33.7341V24.2623C111.84 23.3151 112.568 22.5865 113.515 22.5865H116.794C119.636 22.5865 121.676 24.3352 121.676 26.8852C121.676 28.3424 121.02 29.5082 120 30.3097L121.676 32.6412C121.821 33.0783 121.967 33.5155 121.967 33.8798ZM115.046 28.4153H116.721C117.668 28.4153 118.251 27.8324 118.251 26.9581C118.251 26.0838 117.668 25.5009 116.721 25.5009H115.046V28.4153Z" fill="#19245E"/>
<path d="M22.1494 0C9.90893 0 0 9.90893 0 22.2222C0 24.3352 0.291439 26.3024 0.801457 28.1967H4.8816C7.57741 35.1184 14.2805 40 22.1494 40C30.0182 40 36.7213 35.1184 39.4171 28.1967H43.4973C44.0073 26.3024 44.2987 24.2623 44.2987 22.2222C44.3716 9.90893 34.4627 0 22.1494 0ZM22.1494 31.8397C16.3934 31.8397 11.8033 27.1767 11.8033 21.4936C11.8033 15.8106 16.4663 11.1475 22.1494 11.1475C27.8324 11.1475 32.4954 15.8106 32.4954 21.4936C32.4954 27.1767 27.9053 31.8397 22.1494 31.8397Z" fill="#82D2FF"/>
<path opacity="0.3" d="M18.7978 22.2951H21.1293C21.275 22.2951 21.4207 22.4408 21.4207 22.5865V27.6138C21.4207 27.9053 21.785 27.9781 21.9308 27.6867L25.428 19.8179C25.5009 19.6721 25.3552 19.4536 25.2094 19.4536L23.0965 19.5264C22.9508 19.5264 22.8051 19.3807 22.8051 19.235V14.6448C22.8051 14.3534 22.4408 14.2805 22.3679 14.4991L18.7249 21.8579C18.5063 22.0765 18.6521 22.2951 18.7978 22.2951Z" fill="black"/>
</svg>
