<svg width="20" height="20" viewBox="0 0 20 20" fill="none" xmlns="http://www.w3.org/2000/svg">
<path d="M15.8355 14.1653C14.4604 14.1653 13.3418 15.284 13.3418 16.659C13.3418 18.0341 14.4605 19.1528 15.8355 19.1528C17.2106 19.1528 18.3293 18.0341 18.3293 16.659C18.3293 15.284 17.2106 14.1653 15.8355 14.1653ZM15.8355 17.6565C15.2854 17.6565 14.838 17.2091 14.838 16.659C14.838 16.1089 15.2854 15.6615 15.8355 15.6615C16.3856 15.6615 16.833 16.1089 16.833 16.659C16.833 17.2091 16.3856 17.6565 15.8355 17.6565Z" fill="#19245E"/>
<path d="M19.841 4.52703C19.6994 4.34574 19.4821 4.24 19.252 4.24H4.618L3.94467 1.42279C3.86412 1.08615 3.56311 0.848493 3.21697 0.848493H0.748129C0.334924 0.848454 0 1.18338 0 1.59658C0 2.00979 0.334924 2.34471 0.748129 2.34471H2.62646L5.05788 12.5183C5.13843 12.8552 5.43945 13.0926 5.78558 13.0926H17.4315C17.7755 13.0926 18.0752 12.8582 18.1577 12.5245L19.9782 5.16789C20.0333 4.94449 19.9827 4.70832 19.841 4.52703ZM16.8462 11.5964H6.37609L4.97558 5.73626H18.2961L16.8462 11.5964Z" fill="#19245E"/>
<path d="M6.78309 14.1653C5.408 14.1653 4.28932 15.284 4.28932 16.659C4.28932 18.0341 5.40804 19.1528 6.78309 19.1528C8.15813 19.1528 9.27685 18.0341 9.27685 16.659C9.27685 15.284 8.15813 14.1653 6.78309 14.1653ZM6.78309 17.6565C6.23297 17.6565 5.78558 17.2091 5.78558 16.659C5.78558 16.1089 6.23297 15.6615 6.78309 15.6615C7.33321 15.6615 7.78059 16.1089 7.78059 16.659C7.78059 17.2091 7.33321 17.6565 6.78309 17.6565Z" fill="#19245E"/>
</svg>
