<svg width="121" height="28" viewBox="0 0 121 28" fill="none" xmlns="http://www.w3.org/2000/svg">
<path d="M111.916 23.4608V23.9199C111.916 24.7359 111.253 25.3989 110.437 25.3989H97.3294C96.5134 25.3989 95.8503 24.7359 95.8503 23.9199V23.4608C95.8503 22.6448 96.5134 21.9818 97.3294 21.9818H110.437C111.253 21.9308 111.916 22.6448 111.916 23.4608ZM119.923 13.8215C119.923 13.0055 119.26 12.3424 118.444 12.3424H105.337C104.521 12.3424 103.858 13.0055 103.858 13.8215V14.2805C103.858 15.0965 104.521 15.7596 105.337 15.7596H118.444C119.26 15.7596 119.923 15.0965 119.923 14.2805V13.8215ZM110.437 2.60109H97.3294C96.5134 2.60109 95.8503 3.26412 95.8503 4.08015V4.53916C95.8503 5.35519 96.5134 6.01822 97.3294 6.01822H110.437C111.253 6.01822 111.916 5.35519 111.916 4.53916V4.08015C111.916 3.26412 111.253 2.60109 110.437 2.60109Z" fill="#82D2FF"/>
<path d="M47.0236 4.33515C47.0236 4.48816 46.9726 4.64117 46.9216 4.84517L44.3206 11.5264C44.1165 12.0364 43.7595 12.2914 43.2495 12.2914C42.7395 12.2914 42.3825 12.0364 42.1785 11.5264L40.5974 7.29326L39.0164 11.5264C38.8124 12.0364 38.4553 12.2914 37.9453 12.2914C37.4353 12.2914 37.0783 12.0364 36.8743 11.5264L34.3752 4.84517C34.2732 4.64117 34.2732 4.48816 34.2732 4.33515C34.2732 3.72313 34.7832 3.21311 35.3952 3.21311C35.9053 3.21311 36.2623 3.46812 36.4663 3.92714L38.0473 8.3133L39.5264 4.08015C39.7304 3.51913 40.1384 3.21311 40.6484 3.21311C41.1584 3.21311 41.5665 3.51913 41.7705 4.08015L43.2495 8.3133L44.8306 3.97814C44.9836 3.51913 45.3916 3.21311 45.9016 3.21311C46.5136 3.21311 47.0236 3.72313 47.0236 4.33515ZM48.5537 11.1694V4.43716C48.5537 3.77413 49.0127 3.26412 49.6757 3.26412C50.3388 3.26412 50.7978 3.77413 50.7978 4.43716V6.63024H54.0109V4.38616C54.0109 3.72313 54.4699 3.21311 55.1329 3.21311C55.796 3.21311 56.255 3.67213 56.255 4.38616V11.1694C56.255 11.8324 55.745 12.3424 55.1329 12.3424C54.4699 12.3424 54.0109 11.8324 54.0109 11.1694V8.67031H50.7978V11.1694C50.7978 11.8324 50.2878 12.3424 49.6757 12.3424C49.0127 12.3424 48.5537 11.8324 48.5537 11.1694ZM58.2951 11.0164V4.53916C58.2951 3.87614 58.8051 3.36612 59.4681 3.36612H63.4972C64.1093 3.36612 64.5683 3.82514 64.5683 4.38616C64.5683 4.99818 64.1093 5.40619 63.4972 5.40619H60.5901V6.63024H62.4262C62.9872 6.63024 63.3952 7.03825 63.3952 7.59927C63.3952 8.16029 62.9872 8.56831 62.4262 8.56831H60.5901V10.0984H63.6502C64.2623 10.0984 64.7213 10.5574 64.7213 11.1184C64.7213 11.7304 64.2623 12.1384 63.6502 12.1384H59.4681C58.8051 12.1894 58.2951 11.6794 58.2951 11.0164ZM66.2513 11.0164V4.53916C66.2513 3.87614 66.7614 3.36612 67.4244 3.36612H71.4535C72.0655 3.36612 72.5246 3.82514 72.5246 4.38616C72.5246 4.99818 72.0655 5.40619 71.4535 5.40619H68.5464V6.63024H70.3825C70.9435 6.63024 71.3515 7.03825 71.3515 7.59927C71.3515 8.16029 70.9435 8.56831 70.3825 8.56831H68.5464V10.0984H71.6065C72.2185 10.0984 72.6776 10.5574 72.6776 11.1184C72.6776 11.7304 72.2185 12.1384 71.6065 12.1384H67.4244C66.7614 12.1894 66.2513 11.6794 66.2513 11.0164ZM74.2076 11.0164V4.38616C74.2076 3.77413 74.6666 3.21311 75.3297 3.21311C75.9927 3.21311 76.4517 3.72313 76.4517 4.38616V10.0984H79.1548C79.7668 10.0984 80.1748 10.5574 80.1748 11.1184C80.1748 11.7304 79.7158 12.1384 79.1548 12.1384H75.2787C74.6666 12.1894 74.2076 11.6794 74.2076 11.0164ZM81.7559 11.3734C81.4499 11.1184 81.2969 10.8124 81.2969 10.4554C81.2969 9.84335 81.8069 9.43534 82.3169 9.43534C82.4699 9.43534 82.6739 9.48634 82.8269 9.58834C83.0309 9.74135 83.592 10.3534 84.51 10.3534C85.122 10.3534 85.428 10.1494 85.428 9.69035C85.428 9.28233 85.173 9.12933 84.561 8.87432L83.643 8.4663C82.2659 7.85428 81.3989 7.03825 81.3989 5.81421C81.3989 4.23315 82.7249 3.21311 84.459 3.21311C85.989 3.21311 86.7541 3.97814 86.9581 4.23315C87.1621 4.43716 87.2131 4.69217 87.2131 4.89618C87.2131 5.4572 86.7031 5.91621 86.1931 5.91621C85.989 5.91621 85.785 5.86521 85.632 5.7122C85.326 5.5082 85.071 5.20219 84.51 5.20219C84.051 5.20219 83.745 5.35519 83.745 5.76321C83.745 6.12022 83.949 6.27322 84.51 6.47723L85.53 6.88525C87.0091 7.49727 87.7741 8.2623 87.7741 9.53734C87.7741 11.2714 86.3461 12.2914 84.561 12.2914C83.541 12.3424 82.3679 11.9344 81.7559 11.3734ZM37.8433 23.6138V16.9836C37.8433 16.3206 38.3533 15.8106 39.0164 15.8106H41.3114C43.3005 15.8106 44.7286 17.0346 44.7286 18.8197C44.7286 20.6047 43.3005 21.8288 41.3114 21.8288H40.1384V23.5628C40.1384 24.2259 39.6284 24.7359 39.0164 24.7359C38.3533 24.7869 37.8433 24.2769 37.8433 23.6138ZM41.3114 19.8907C41.9745 19.8907 42.3825 19.4827 42.3825 18.8707C42.3825 18.2587 41.9745 17.8506 41.3114 17.8506H40.1384V19.8907H41.3114ZM55.2349 20.1967C55.2349 22.7468 53.1439 24.7359 50.4918 24.7359C47.8397 24.7359 45.7486 22.7468 45.7486 20.1967C45.7486 17.6466 47.8397 15.6576 50.4918 15.6576C53.1439 15.6576 55.2349 17.6466 55.2349 20.1967ZM48.0947 20.1967C48.0947 21.6758 49.0637 22.6448 50.4918 22.6448C51.9198 22.6448 52.8889 21.6248 52.8889 20.1967C52.8889 18.7687 51.8688 17.7486 50.4918 17.7486C49.0637 17.7486 48.0947 18.7687 48.0947 20.1967ZM68.8014 16.7796C68.8014 16.9326 68.7504 17.0856 68.6994 17.2896L66.0983 23.9709C65.8943 24.4809 65.5373 24.7359 65.0273 24.7359C64.5173 24.7359 64.1603 24.4809 63.9563 23.9709L62.3752 19.7377L60.7941 23.9709C60.5901 24.4809 60.2331 24.7359 59.7231 24.7359C59.2131 24.7359 58.8561 24.4809 58.6521 23.9709L56.051 17.2896C55.949 17.0856 55.949 16.9326 55.949 16.7796C55.949 16.1676 56.459 15.6576 57.071 15.6576C57.581 15.6576 57.938 15.9126 58.142 16.3716L59.7231 20.7577L61.2022 16.5246C61.4062 15.9636 61.8142 15.6576 62.3242 15.6576C62.8342 15.6576 63.2422 15.9636 63.4462 16.5246L64.9253 20.7577L66.5063 16.4226C66.6593 15.9636 67.0674 15.6576 67.5774 15.6576C68.2914 15.6576 68.8014 16.1676 68.8014 16.7796ZM70.2805 23.4608V16.9836C70.2805 16.3206 70.7905 15.8106 71.4535 15.8106H75.4827C76.0947 15.8106 76.5537 16.2696 76.5537 16.8306C76.5537 17.4426 76.0947 17.8506 75.4827 17.8506H72.5756V19.0747H74.4116C74.9726 19.0747 75.3807 19.4827 75.3807 20.0437C75.3807 20.6047 74.9726 21.0128 74.4116 21.0128H72.5756V22.5428H75.6357C76.2477 22.5428 76.7067 23.0018 76.7067 23.5628C76.7067 24.1749 76.2477 24.5829 75.6357 24.5829H71.4535C70.7905 24.5829 70.2805 24.1239 70.2805 23.4608ZM85.377 23.7158C85.377 24.2769 84.867 24.7359 84.306 24.7359C83.898 24.7359 83.541 24.5319 83.2859 24.1749L81.7559 21.8798H81.7049H80.5318V23.6138C80.5318 24.2769 80.0218 24.7869 79.4098 24.7869C78.7468 24.7869 78.2878 24.2769 78.2878 23.6138V16.9836C78.2878 16.3206 78.7978 15.8106 79.4608 15.8106H81.7559C83.745 15.8106 85.173 17.0346 85.173 18.8197C85.173 19.8397 84.714 20.6557 84 21.2168L85.173 22.8488C85.275 23.1548 85.377 23.4608 85.377 23.7158ZM80.5318 19.8907H81.7049C82.3679 19.8907 82.7759 19.4827 82.7759 18.8707C82.7759 18.2587 82.3679 17.8506 81.7049 17.8506H80.5318V19.8907Z" fill="#19245E"/>
<path d="M15.5046 0C6.93625 0 0 6.93625 0 15.5556C0 17.0346 0.204007 18.4117 0.56102 19.7377H3.41712C5.30419 24.5829 9.99636 28 15.5046 28C21.0127 28 25.7049 24.5829 27.592 19.7377H30.4481C30.8051 18.4117 31.0091 16.9836 31.0091 15.5556C31.0601 6.93625 24.1239 0 15.5046 0ZM15.5046 22.2878C11.4754 22.2878 8.26229 19.0237 8.26229 15.0455C8.26229 11.0674 11.5264 7.80328 15.5046 7.80328C19.4827 7.80328 22.7468 11.0674 22.7468 15.0455C22.7468 19.0237 19.5337 22.2878 15.5046 22.2878Z" fill="#82D2FF"/>
<path opacity="0.3" d="M13.1586 15.6066H14.7906C14.8926 15.6066 14.9946 15.7086 14.9946 15.8106V19.3297C14.9946 19.5337 15.2496 19.5847 15.3516 19.3807L17.7997 13.8725C17.8507 13.7705 17.7487 13.6175 17.6467 13.6175L16.1677 13.6685C16.0657 13.6685 15.9637 13.5665 15.9637 13.4645V10.2514C15.9637 10.0474 15.7087 9.99636 15.6577 10.1494L13.1076 15.3005C12.9546 15.4536 13.0566 15.6066 13.1586 15.6066Z" fill="black"/>
</svg>
